<?xml version="1.0" encoding="utf-8"?>
<!-- Generated by IcoMoon.io -->
<!DOCTYPE svg PUBLIC "-//W3C//DTD SVG 1.1//EN" "http://www.w3.org/Graphics/SVG/1.1/DTD/svg11.dtd">
<svg version="1.1" xmlns="http://www.w3.org/2000/svg" xmlns:xlink="http://www.w3.org/1999/xlink" width="16" height="16" viewBox="0 0 16 16">
	<path d="M5.971 12.476c0.371 0.404 0.985 0.542 2.117 0.523 1.020-0.017 1.592-0.105 1.941-0.426v1.173c-0.623 0.203-1.309 0.315-2.029 0.315-0.72 0-1.406-0.113-2.029-0.315v-1.269zM5.992 14.533c0.901 0.275 1.312 0.29 2.008 0.29 0.696 0 1.107-0.015 2.008-0.29-0.078 0.428-0.416 1.467-2.008 1.467-1.592 0-1.929-1.039-2.008-1.467zM8 1.188c-2.010 0-3.646 1.606-3.646 3.579 0 0.981 0.684 2.2 1.511 3.575 0.33 0.549 0.488 1.091 0.615 1.527 0.099 0.338 0.192 0.657 0.313 0.77 0.056 0.053 0.308 0.224 1.176 0.224 0.033 0 0.067-0 0.101-0.001 0.963-0.014 1.192-0.189 1.215-0.209 0.074-0.064 0.154-0.352 0.224-0.606 0.113-0.408 0.254-0.916 0.566-1.462 0.625-1.093 1.569-2.744 1.569-3.818 0-0.952-0.377-1.849-1.062-2.525-0.69-0.68-1.607-1.055-2.583-1.055zM8 0v0c2.668 0 4.833 2.136 4.833 4.767 0 1.316-0.872 2.916-1.725 4.407-0.852 1.492-0.094 2.832-3.020 2.875-0.040 0.001-0.080 0.001-0.119 0.001-2.915 0-2.237-1.625-3.122-3.097-0.897-1.492-1.681-2.871-1.681-4.187 0-2.631 2.165-4.767 4.833-4.767z" fill="#666666" />
</svg>
